<svg width="135" height="36" viewBox="0 0 135 36" fill="none" xmlns="http://www.w3.org/2000/svg">
<path d="M32.2266 12.9375H37.6992C38.8242 12.9375 39.8125 13.1289 40.6641 13.5117C41.5156 13.8945 42.1797 14.4531 42.6562 15.1875C43.1406 15.9219 43.3828 16.8242 43.3828 17.8945C43.3828 18.7148 43.207 19.457 42.8555 20.1211C42.5039 20.7852 42.0273 21.3359 41.4258 21.7734C40.8242 22.2031 40.1445 22.4844 39.3867 22.6172L38.9766 22.7695H32.6836L32.6602 21.9023H38.1797C39.125 21.9023 39.9102 21.7109 40.5352 21.3281C41.168 20.9453 41.6406 20.4492 41.9531 19.8398C42.2734 19.2227 42.4336 18.5742 42.4336 17.8945C42.4336 17.043 42.2422 16.3164 41.8594 15.7148C41.4844 15.1055 40.9414 14.6367 40.2305 14.3086C39.5273 13.9727 38.6836 13.8047 37.6992 13.8047H33.1758V30H32.2266V12.9375ZM43.0898 30L38.5195 22.4297L39.5742 22.418L44.0977 29.8359V30H43.0898ZM46.5938 23.8828V23.4375C46.5938 22.5078 46.7266 21.6562 46.9922 20.8828C47.2656 20.1094 47.6484 19.4414 48.1406 18.8789C48.6328 18.3086 49.2188 17.8672 49.8984 17.5547C50.5859 17.2422 51.3477 17.0859 52.1836 17.0859C53.0195 17.0859 53.7812 17.2422 54.4688 17.5547C55.1562 17.8672 55.7461 18.3086 56.2383 18.8789C56.7383 19.4414 57.1211 20.1094 57.3867 20.8828C57.6523 21.6562 57.7852 22.5078 57.7852 23.4375V23.8828C57.7852 24.8125 57.6523 25.6641 57.3867 26.4375C57.1211 27.2109 56.7422 27.8828 56.25 28.4531C55.7578 29.0156 55.168 29.4531 54.4805 29.7656C53.8008 30.0781 53.043 30.2344 52.207 30.2344C51.3633 30.2344 50.5977 30.0781 49.9102 29.7656C49.2305 29.4531 48.6406 29.0156 48.1406 28.4531C47.6484 27.8828 47.2656 27.2109 46.9922 26.4375C46.7266 25.6641 46.5938 24.8125 46.5938 23.8828ZM47.5312 23.4375V23.8828C47.5312 24.6172 47.6328 25.3164 47.8359 25.9805C48.0469 26.6367 48.3516 27.2227 48.75 27.7383C49.1484 28.2461 49.6367 28.6484 50.2148 28.9453C50.793 29.2344 51.457 29.3789 52.207 29.3789C52.9414 29.3789 53.5977 29.2344 54.1758 28.9453C54.7539 28.6484 55.2383 28.2461 55.6289 27.7383C56.0273 27.2227 56.3281 26.6367 56.5312 25.9805C56.7422 25.3164 56.8477 24.6172 56.8477 23.8828V23.4375C56.8477 22.7188 56.7422 22.0312 56.5312 21.375C56.3281 20.7188 56.0273 20.1328 55.6289 19.6172C55.2305 19.1016 54.7422 18.6953 54.1641 18.3984C53.5859 18.0938 52.9258 17.9414 52.1836 17.9414C51.4414 17.9414 50.7812 18.0938 50.2031 18.3984C49.6328 18.6953 49.1445 19.1016 48.7383 19.6172C48.3398 20.1328 48.0391 20.7188 47.8359 21.375C47.6328 22.0312 47.5312 22.7188 47.5312 23.4375ZM59.9062 23.8828V23.4375C59.9062 22.5078 60.0391 21.6562 60.3047 20.8828C60.5781 20.1094 60.9609 19.4414 61.4531 18.8789C61.9453 18.3086 62.5312 17.8672 63.2109 17.5547C63.8984 17.2422 64.6602 17.0859 65.4961 17.0859C66.332 17.0859 67.0938 17.2422 67.7812 17.5547C68.4688 17.8672 69.0586 18.3086 69.5508 18.8789C70.0508 19.4414 70.4336 20.1094 70.6992 20.8828C70.9648 21.6562 71.0977 22.5078 71.0977 23.4375V23.8828C71.0977 24.8125 70.9648 25.6641 70.6992 26.4375C70.4336 27.2109 70.0547 27.8828 69.5625 28.4531C69.0703 29.0156 68.4805 29.4531 67.793 29.7656C67.1133 30.0781 66.3555 30.2344 65.5195 30.2344C64.6758 30.2344 63.9102 30.0781 63.2227 29.7656C62.543 29.4531 61.9531 29.0156 61.4531 28.4531C60.9609 27.8828 60.5781 27.2109 60.3047 26.4375C60.0391 25.6641 59.9062 24.8125 59.9062 23.8828ZM60.8438 23.4375V23.8828C60.8438 24.6172 60.9453 25.3164 61.1484 25.9805C61.3594 26.6367 61.6641 27.2227 62.0625 27.7383C62.4609 28.2461 62.9492 28.6484 63.5273 28.9453C64.1055 29.2344 64.7695 29.3789 65.5195 29.3789C66.2539 29.3789 66.9102 29.2344 67.4883 28.9453C68.0664 28.6484 68.5508 28.2461 68.9414 27.7383C69.3398 27.2227 69.6406 26.6367 69.8438 25.9805C70.0547 25.3164 70.1602 24.6172 70.1602 23.8828V23.4375C70.1602 22.7188 70.0547 22.0312 69.8438 21.375C69.6406 20.7188 69.3398 20.1328 68.9414 19.6172C68.543 19.1016 68.0547 18.6953 67.4766 18.3984C66.8984 18.0938 66.2383 17.9414 65.4961 17.9414C64.7539 17.9414 64.0938 18.0938 63.5156 18.3984C62.9453 18.6953 62.457 19.1016 62.0508 19.6172C61.6523 20.1328 61.3516 20.7188 61.1484 21.375C60.9453 22.0312 60.8438 22.7188 60.8438 23.4375ZM75.0469 12V30H74.1094V12H75.0469ZM83.1211 17.3203L76.957 23.1797L74.7773 25.1602L74.5547 24.3398L76.4648 22.4297L81.8789 17.3203H83.1211ZM82.3711 30L76.6055 23.0859L77.1562 22.3125L83.5195 30H82.3711ZM97.2539 22.8984H92.1914V22.0312H97.2539C98.3477 22.0312 99.2383 21.8516 99.9258 21.4922C100.613 21.125 101.113 20.6367 101.426 20.0273C101.746 19.4102 101.906 18.7305 101.906 17.9883C101.906 17.2227 101.746 16.5234 101.426 15.8906C101.113 15.2578 100.613 14.7539 99.9258 14.3789C99.2383 13.9961 98.3477 13.8047 97.2539 13.8047H92.6836V30H91.7344V12.9375H97.2539C98.4805 12.9375 99.5078 13.1484 100.336 13.5703C101.172 13.9922 101.801 14.582 102.223 15.3398C102.645 16.0898 102.855 16.9648 102.855 17.9648C102.855 18.9805 102.645 19.8594 102.223 20.6016C101.801 21.3359 101.176 21.9023 100.348 22.3008C99.5195 22.6992 98.4883 22.8984 97.2539 22.8984ZM107.051 12V30H106.113V12H107.051ZM118.957 27.668V21.1172C118.957 20.4531 118.816 19.8828 118.535 19.4062C118.254 18.9297 117.844 18.5664 117.305 18.3164C116.766 18.0586 116.105 17.9297 115.324 17.9297C114.598 17.9297 113.945 18.0586 113.367 18.3164C112.797 18.5664 112.348 18.9102 112.02 19.3477C111.691 19.7852 111.527 20.2734 111.527 20.8125L110.59 20.8008C110.59 20.3164 110.703 19.8516 110.93 19.4062C111.164 18.9609 111.492 18.5664 111.914 18.2227C112.344 17.8711 112.848 17.5938 113.426 17.3906C114.012 17.1875 114.652 17.0859 115.348 17.0859C116.238 17.0859 117.023 17.2383 117.703 17.543C118.391 17.8398 118.926 18.2891 119.309 18.8906C119.691 19.4922 119.883 20.2422 119.883 21.1406V27.3984C119.883 27.8516 119.914 28.3086 119.977 28.7695C120.039 29.2305 120.125 29.6016 120.234 29.8828V30H119.215C119.129 29.7031 119.062 29.3398 119.016 28.9102C118.977 28.4805 118.957 28.0664 118.957 27.668ZM119.262 22.8047L119.285 23.6133H116.191C115.41 23.6133 114.711 23.6875 114.094 23.8359C113.477 23.9844 112.953 24.1953 112.523 24.4688C112.094 24.7422 111.766 25.0664 111.539 25.4414C111.312 25.8164 111.199 26.2383 111.199 26.707C111.199 27.1914 111.328 27.6367 111.586 28.043C111.844 28.4492 112.207 28.7734 112.676 29.0156C113.145 29.25 113.688 29.3672 114.305 29.3672C115.148 29.3672 115.895 29.2227 116.543 28.9336C117.199 28.6367 117.75 28.2383 118.195 27.7383C118.641 27.2305 118.965 26.6445 119.168 25.9805L119.578 26.6602C119.445 27.0742 119.238 27.4922 118.957 27.9141C118.676 28.3359 118.312 28.7227 117.867 29.0742C117.422 29.418 116.898 29.6992 116.297 29.918C115.695 30.1289 115.012 30.2344 114.246 30.2344C113.441 30.2344 112.738 30.0859 112.137 29.7891C111.543 29.4844 111.082 29.0703 110.754 28.5469C110.426 28.0156 110.262 27.4102 110.262 26.7305C110.262 26.1445 110.395 25.6094 110.66 25.125C110.926 24.6406 111.309 24.2266 111.809 23.8828C112.316 23.5312 112.93 23.2656 113.648 23.0859C114.375 22.8984 115.191 22.8047 116.098 22.8047H119.262ZM127.535 28.7578L131.754 17.3203H132.773L127.242 32.0742C127.141 32.3555 127.012 32.668 126.855 33.0117C126.699 33.3633 126.496 33.6992 126.246 34.0195C125.996 34.3398 125.672 34.6016 125.273 34.8047C124.883 35.0156 124.398 35.1211 123.82 35.1211C123.688 35.1211 123.512 35.1055 123.293 35.0742C123.082 35.0508 122.926 35.0195 122.824 34.9805L122.812 34.1602C122.922 34.1836 123.066 34.2031 123.246 34.2188C123.426 34.2422 123.551 34.2539 123.621 34.2539C124.137 34.2539 124.566 34.1523 124.91 33.9492C125.262 33.7539 125.555 33.4727 125.789 33.1055C126.023 32.7461 126.23 32.3203 126.41 31.8281L127.535 28.7578ZM123.188 17.3203L127.688 28.8398L127.957 29.8008L127.242 30.2461L122.168 17.3203H123.188Z" fill="white"/>
<path d="M19.9657 25.5H11.5H3.03431C4.18824 23.9638 4.96763 22.4194 5.38367 20.418C5.84729 18.1877 5.85347 15.4181 5.47538 11.5H11.5H17.5246C17.1465 15.4181 17.1527 18.1877 17.6163 20.418C18.0324 22.4194 18.8118 23.9638 19.9657 25.5Z" stroke="white"/>
<path d="M2 27.5H21C21.8284 27.5 22.5 28.1716 22.5 29V30C22.5 30.8284 21.8284 31.5 21 31.5H2C1.17157 31.5 0.5 30.8284 0.5 30V29C0.5 28.1716 1.17157 27.5 2 27.5Z" stroke="white"/>
<path d="M18.1071 5V3.5H19.6429C19.8025 3.5 20.0046 3.59512 20.1887 3.86655C20.3711 4.13524 20.5 4.53448 20.5 5V8C20.5 8.46552 20.3711 8.86476 20.1887 9.13345C20.0046 9.40488 19.8025 9.5 19.6429 9.5H3.35714C3.19748 9.5 2.99544 9.40488 2.81125 9.13345C2.62892 8.86476 2.5 8.46552 2.5 8V5C2.5 4.53448 2.62892 4.13524 2.81125 3.86655C2.99544 3.59512 3.19748 3.5 3.35714 3.5H4.89286V5V5.5H5.39286H7.42857H7.92857V5V3.5H15.0714V5V5.5H15.5714H17.6071H18.1071V5Z" stroke="white"/>
</svg>
