<svg width="23" height="29" viewBox="0 0 23 29" fill="none" xmlns="http://www.w3.org/2000/svg">
<path d="M19.9657 22.5H11.5H3.03431C4.18824 20.9638 4.96763 19.4194 5.38367 17.418C5.84729 15.1877 5.85347 12.4181 5.47538 8.5H11.5H17.5246C17.1465 12.4181 17.1527 15.1877 17.6163 17.418C18.0324 19.4194 18.8118 20.9638 19.9657 22.5Z" stroke="white"/>
<path d="M2 24.5H21C21.8284 24.5 22.5 25.1716 22.5 26V27C22.5 27.8284 21.8284 28.5 21 28.5H2C1.17157 28.5 0.5 27.8284 0.5 27V26C0.5 25.1716 1.17157 24.5 2 24.5Z" stroke="white"/>
<path d="M18.1071 2V0.5H19.6429C19.8025 0.5 20.0046 0.595122 20.1887 0.866547C20.3711 1.13524 20.5 1.53448 20.5 2V5C20.5 5.46552 20.3711 5.86476 20.1887 6.13345C20.0046 6.40488 19.8025 6.5 19.6429 6.5H3.35714C3.19748 6.5 2.99544 6.40488 2.81125 6.13345C2.62892 5.86476 2.5 5.46552 2.5 5V2C2.5 1.53448 2.62892 1.13524 2.81125 0.866547C2.99544 0.595121 3.19748 0.5 3.35714 0.5H4.89286V2V2.5H5.39286H7.42857H7.92857V2V0.5H15.0714V2V2.5H15.5714H17.6071H18.1071V2Z" stroke="white"/>
</svg>
